<mxfile host="app.diagrams.net" modified="2022-05-10T09:58:48.362Z" agent="5.0 (Macintosh; Intel Mac OS X 10_15_7) AppleWebKit/537.36 (KHTML, like Gecko) Chrome/101.0.4951.54 Safari/537.36" etag="ob_SgH-PjQZDJ8PKrGwd" version="17.5.0" type="github">
  <diagram id="kpsbyWIFl-7CRho2f-r-" name="Page-1">
    <mxGraphModel dx="2018" dy="774" grid="1" gridSize="10" guides="1" tooltips="1" connect="1" arrows="1" fold="1" page="1" pageScale="1" pageWidth="827" pageHeight="1169" math="0" shadow="0">
      <root>
        <mxCell id="0" />
        <mxCell id="1" parent="0" />
        <mxCell id="6jbebENHfQlvfjUyyGji-51" value="" style="rounded=0;whiteSpace=wrap;html=1;fontSize=11;opacity=40;" vertex="1" parent="1">
          <mxGeometry x="-40" y="55" width="1400" height="595" as="geometry" />
        </mxCell>
        <mxCell id="6jbebENHfQlvfjUyyGji-2" value="" style="rounded=0;whiteSpace=wrap;html=1;fontSize=14;" vertex="1" parent="1">
          <mxGeometry x="160" y="160" width="480" height="40" as="geometry" />
        </mxCell>
        <mxCell id="6jbebENHfQlvfjUyyGji-3" value="" style="rounded=0;whiteSpace=wrap;html=1;fontSize=14;" vertex="1" parent="1">
          <mxGeometry x="160" y="260" width="480" height="40" as="geometry" />
        </mxCell>
        <mxCell id="6jbebENHfQlvfjUyyGji-4" value="" style="rounded=0;whiteSpace=wrap;html=1;fontSize=14;" vertex="1" parent="1">
          <mxGeometry x="160" y="360" width="480" height="40" as="geometry" />
        </mxCell>
        <mxCell id="6jbebENHfQlvfjUyyGji-5" value="&lt;span style=&quot;font-size: 14px;&quot;&gt;已被读取的数据&lt;/span&gt;" style="rounded=0;whiteSpace=wrap;html=1;fillColor=#cdeb8b;strokeColor=none;fontSize=14;" vertex="1" parent="1">
          <mxGeometry x="160" y="160" width="270" height="40" as="geometry" />
        </mxCell>
        <mxCell id="6jbebENHfQlvfjUyyGji-6" value="已被读取的数据" style="rounded=0;whiteSpace=wrap;html=1;fillColor=#cce5ff;strokeColor=none;fontSize=14;" vertex="1" parent="1">
          <mxGeometry x="160" y="260" width="240" height="40" as="geometry" />
        </mxCell>
        <mxCell id="6jbebENHfQlvfjUyyGji-7" value="&lt;span style=&quot;font-size: 14px;&quot;&gt;已被读取的数据&lt;/span&gt;" style="rounded=0;whiteSpace=wrap;html=1;fillColor=#ffcc99;strokeColor=none;fontSize=14;" vertex="1" parent="1">
          <mxGeometry x="160" y="360" width="350" height="40" as="geometry" />
        </mxCell>
        <mxCell id="6jbebENHfQlvfjUyyGji-9" value="" style="rounded=0;whiteSpace=wrap;html=1;fillColor=#cdeb8b;strokeColor=#36393d;opacity=50;fontSize=14;" vertex="1" parent="1">
          <mxGeometry x="430" y="160" width="100" height="40" as="geometry" />
        </mxCell>
        <mxCell id="6jbebENHfQlvfjUyyGji-10" value="" style="rounded=0;whiteSpace=wrap;html=1;fillColor=#cce5ff;strokeColor=#36393d;opacity=40;fontSize=14;" vertex="1" parent="1">
          <mxGeometry x="400" y="260" width="80" height="40" as="geometry" />
        </mxCell>
        <mxCell id="6jbebENHfQlvfjUyyGji-11" value="" style="rounded=0;whiteSpace=wrap;html=1;fillColor=#ffcc99;strokeColor=#36393d;opacity=40;fontSize=14;" vertex="1" parent="1">
          <mxGeometry x="510" y="360" width="80" height="40" as="geometry" />
        </mxCell>
        <mxCell id="6jbebENHfQlvfjUyyGji-12" value="" style="endArrow=none;dashed=1;html=1;dashPattern=1 3;strokeWidth=2;rounded=0;exitX=0;exitY=0;exitDx=0;exitDy=0;fontSize=14;" edge="1" parent="1" source="6jbebENHfQlvfjUyyGji-11">
          <mxGeometry width="50" height="50" relative="1" as="geometry">
            <mxPoint x="570" y="360" as="sourcePoint" />
            <mxPoint x="510" y="330" as="targetPoint" />
          </mxGeometry>
        </mxCell>
        <mxCell id="6jbebENHfQlvfjUyyGji-13" value="" style="endArrow=none;dashed=1;html=1;dashPattern=1 3;strokeWidth=2;rounded=0;exitX=0;exitY=0;exitDx=0;exitDy=0;fontSize=14;" edge="1" parent="1">
          <mxGeometry width="50" height="50" relative="1" as="geometry">
            <mxPoint x="590" y="360" as="sourcePoint" />
            <mxPoint x="590" y="330" as="targetPoint" />
          </mxGeometry>
        </mxCell>
        <mxCell id="6jbebENHfQlvfjUyyGji-14" value="已收到&lt;br style=&quot;font-size: 12px;&quot;&gt;但未读取的数据" style="text;html=1;align=center;verticalAlign=middle;resizable=0;points=[];autosize=1;strokeColor=none;fillColor=none;fontSize=12;" vertex="1" parent="1">
          <mxGeometry x="500" y="310" width="100" height="30" as="geometry" />
        </mxCell>
        <mxCell id="6jbebENHfQlvfjUyyGji-15" value="" style="endArrow=classic;startArrow=classic;html=1;rounded=0;fontSize=14;" edge="1" parent="1">
          <mxGeometry width="50" height="50" relative="1" as="geometry">
            <mxPoint x="520" y="350" as="sourcePoint" />
            <mxPoint x="570" y="350" as="targetPoint" />
          </mxGeometry>
        </mxCell>
        <mxCell id="6jbebENHfQlvfjUyyGji-16" value="" style="endArrow=classic;html=1;rounded=0;exitX=1;exitY=1;exitDx=0;exitDy=0;fontSize=14;" edge="1" parent="1" source="6jbebENHfQlvfjUyyGji-11">
          <mxGeometry width="50" height="50" relative="1" as="geometry">
            <mxPoint x="750" y="550" as="sourcePoint" />
            <mxPoint x="650" y="430" as="targetPoint" />
          </mxGeometry>
        </mxCell>
        <mxCell id="6jbebENHfQlvfjUyyGji-18" value="" style="endArrow=none;dashed=1;html=1;dashPattern=1 3;strokeWidth=2;rounded=0;exitX=0;exitY=0;exitDx=0;exitDy=0;fontSize=14;" edge="1" parent="1">
          <mxGeometry width="50" height="50" relative="1" as="geometry">
            <mxPoint x="400" y="260" as="sourcePoint" />
            <mxPoint x="400" y="230" as="targetPoint" />
          </mxGeometry>
        </mxCell>
        <mxCell id="6jbebENHfQlvfjUyyGji-19" value="" style="endArrow=none;dashed=1;html=1;dashPattern=1 3;strokeWidth=2;rounded=0;exitX=0;exitY=0;exitDx=0;exitDy=0;fontSize=14;" edge="1" parent="1">
          <mxGeometry width="50" height="50" relative="1" as="geometry">
            <mxPoint x="480" y="260" as="sourcePoint" />
            <mxPoint x="480" y="230" as="targetPoint" />
          </mxGeometry>
        </mxCell>
        <mxCell id="6jbebENHfQlvfjUyyGji-20" value="已收到&lt;br style=&quot;font-size: 12px;&quot;&gt;但未读取的数据" style="text;html=1;align=center;verticalAlign=middle;resizable=0;points=[];autosize=1;strokeColor=none;fillColor=none;fontSize=12;" vertex="1" parent="1">
          <mxGeometry x="390" y="215" width="100" height="30" as="geometry" />
        </mxCell>
        <mxCell id="6jbebENHfQlvfjUyyGji-21" value="" style="endArrow=classic;startArrow=classic;html=1;rounded=0;fontSize=14;" edge="1" parent="1">
          <mxGeometry width="50" height="50" relative="1" as="geometry">
            <mxPoint x="410" y="250" as="sourcePoint" />
            <mxPoint x="460" y="250" as="targetPoint" />
          </mxGeometry>
        </mxCell>
        <mxCell id="6jbebENHfQlvfjUyyGji-22" value="" style="endArrow=none;dashed=1;html=1;dashPattern=1 3;strokeWidth=2;rounded=0;exitX=0;exitY=0;exitDx=0;exitDy=0;fontSize=14;" edge="1" parent="1">
          <mxGeometry width="50" height="50" relative="1" as="geometry">
            <mxPoint x="430" y="160" as="sourcePoint" />
            <mxPoint x="430" y="130" as="targetPoint" />
          </mxGeometry>
        </mxCell>
        <mxCell id="6jbebENHfQlvfjUyyGji-23" value="" style="endArrow=none;dashed=1;html=1;dashPattern=1 3;strokeWidth=2;rounded=0;exitX=0;exitY=0;exitDx=0;exitDy=0;fontSize=14;" edge="1" parent="1">
          <mxGeometry width="50" height="50" relative="1" as="geometry">
            <mxPoint x="530" y="160" as="sourcePoint" />
            <mxPoint x="530" y="130" as="targetPoint" />
          </mxGeometry>
        </mxCell>
        <mxCell id="6jbebENHfQlvfjUyyGji-25" value="" style="endArrow=classic;startArrow=classic;html=1;rounded=0;fontSize=14;" edge="1" parent="1">
          <mxGeometry width="50" height="50" relative="1" as="geometry">
            <mxPoint x="440" y="150" as="sourcePoint" />
            <mxPoint x="520" y="150" as="targetPoint" />
          </mxGeometry>
        </mxCell>
        <mxCell id="6jbebENHfQlvfjUyyGji-26" value="" style="endArrow=classic;html=1;rounded=0;exitX=0.669;exitY=1.05;exitDx=0;exitDy=0;exitPerimeter=0;fontSize=14;" edge="1" parent="1" source="6jbebENHfQlvfjUyyGji-3" target="6jbebENHfQlvfjUyyGji-30">
          <mxGeometry width="50" height="50" relative="1" as="geometry">
            <mxPoint x="560" y="300" as="sourcePoint" />
            <mxPoint x="480" y="330" as="targetPoint" />
          </mxGeometry>
        </mxCell>
        <mxCell id="6jbebENHfQlvfjUyyGji-27" value="" style="endArrow=classic;html=1;rounded=0;exitX=1;exitY=1;exitDx=0;exitDy=0;fontSize=14;" edge="1" parent="1">
          <mxGeometry width="50" height="50" relative="1" as="geometry">
            <mxPoint x="530" y="200" as="sourcePoint" />
            <mxPoint x="590" y="230" as="targetPoint" />
          </mxGeometry>
        </mxCell>
        <mxCell id="6jbebENHfQlvfjUyyGji-28" value="最大偏移字节数&lt;br style=&quot;font-size: 12px;&quot;&gt;100" style="text;html=1;align=center;verticalAlign=middle;resizable=0;points=[];autosize=1;strokeColor=none;fillColor=none;fontSize=12;" vertex="1" parent="1">
          <mxGeometry x="590" y="210" width="100" height="30" as="geometry" />
        </mxCell>
        <mxCell id="6jbebENHfQlvfjUyyGji-29" value="已收到&lt;br style=&quot;font-size: 12px;&quot;&gt;但未读取的数据" style="text;html=1;align=center;verticalAlign=middle;resizable=0;points=[];autosize=1;strokeColor=none;fillColor=none;fontSize=12;" vertex="1" parent="1">
          <mxGeometry x="430" y="115" width="100" height="30" as="geometry" />
        </mxCell>
        <mxCell id="6jbebENHfQlvfjUyyGji-30" value="最大偏移字节数&lt;br style=&quot;font-size: 12px;&quot;&gt;90" style="text;html=1;align=center;verticalAlign=middle;resizable=0;points=[];autosize=1;strokeColor=none;fillColor=none;fontSize=12;" vertex="1" parent="1">
          <mxGeometry x="380" y="320" width="100" height="30" as="geometry" />
        </mxCell>
        <mxCell id="6jbebENHfQlvfjUyyGji-31" value="最大偏移字节数&lt;br style=&quot;font-size: 12px;&quot;&gt;110" style="text;html=1;align=center;verticalAlign=middle;resizable=0;points=[];autosize=1;strokeColor=none;fillColor=none;fontSize=12;" vertex="1" parent="1">
          <mxGeometry x="620" y="435" width="100" height="30" as="geometry" />
        </mxCell>
        <mxCell id="6jbebENHfQlvfjUyyGji-33" value="stream 1" style="text;html=1;align=center;verticalAlign=middle;resizable=0;points=[];autosize=1;strokeColor=none;fillColor=none;fontSize=16;" vertex="1" parent="1">
          <mxGeometry x="80" y="170" width="80" height="20" as="geometry" />
        </mxCell>
        <mxCell id="6jbebENHfQlvfjUyyGji-34" value="&lt;span style=&quot;color: rgb(0, 0, 0); font-family: helvetica; font-size: 16px; font-style: normal; font-weight: 400; letter-spacing: normal; text-align: center; text-indent: 0px; text-transform: none; word-spacing: 0px; background-color: rgb(248, 249, 250); display: inline; float: none;&quot;&gt;stream 2&lt;br style=&quot;font-size: 16px;&quot;&gt;&lt;/span&gt;" style="text;whiteSpace=wrap;html=1;fontSize=16;" vertex="1" parent="1">
          <mxGeometry x="85" y="265" width="70" height="30" as="geometry" />
        </mxCell>
        <mxCell id="6jbebENHfQlvfjUyyGji-35" value="&lt;span style=&quot;color: rgb(0, 0, 0); font-family: helvetica; font-size: 16px; font-style: normal; font-weight: 400; letter-spacing: normal; text-align: center; text-indent: 0px; text-transform: none; word-spacing: 0px; background-color: rgb(248, 249, 250); display: inline; float: none;&quot;&gt;stream 3&lt;br style=&quot;font-size: 16px;&quot;&gt;&lt;/span&gt;" style="text;whiteSpace=wrap;html=1;fontSize=16;" vertex="1" parent="1">
          <mxGeometry x="90" y="365" width="70" height="30" as="geometry" />
        </mxCell>
        <mxCell id="6jbebENHfQlvfjUyyGji-36" style="edgeStyle=orthogonalEdgeStyle;rounded=0;orthogonalLoop=1;jettySize=auto;html=1;exitX=0.5;exitY=1;exitDx=0;exitDy=0;fontSize=16;" edge="1" parent="1" source="6jbebENHfQlvfjUyyGji-34" target="6jbebENHfQlvfjUyyGji-34">
          <mxGeometry relative="1" as="geometry" />
        </mxCell>
        <mxCell id="6jbebENHfQlvfjUyyGji-38" value="" style="rounded=0;whiteSpace=wrap;html=1;fontSize=14;" vertex="1" parent="1">
          <mxGeometry x="75" y="520" width="1245" height="40" as="geometry" />
        </mxCell>
        <mxCell id="6jbebENHfQlvfjUyyGji-39" value="&lt;span style=&quot;color: rgb(0 , 0 , 0) ; font-family: &amp;#34;helvetica&amp;#34; ; font-size: 16px ; font-style: normal ; font-weight: 400 ; letter-spacing: normal ; text-align: center ; text-indent: 0px ; text-transform: none ; word-spacing: 0px ; background-color: rgb(248 , 249 , 250) ; display: inline ; float: none&quot;&gt;connection&lt;br style=&quot;font-size: 16px&quot;&gt;&lt;/span&gt;" style="text;whiteSpace=wrap;html=1;fontSize=16;" vertex="1" parent="1">
          <mxGeometry x="-20" y="525" width="70" height="30" as="geometry" />
        </mxCell>
        <mxCell id="6jbebENHfQlvfjUyyGji-40" value="&lt;span style=&quot;font-size: 14px;&quot;&gt;已被读取的数据&lt;/span&gt;" style="rounded=0;whiteSpace=wrap;html=1;fillColor=#cdeb8b;strokeColor=none;fontSize=14;" vertex="1" parent="1">
          <mxGeometry x="75" y="520" width="270" height="40" as="geometry" />
        </mxCell>
        <mxCell id="6jbebENHfQlvfjUyyGji-41" value="&lt;span style=&quot;font-size: 14px;&quot;&gt;已被读取的数据&lt;/span&gt;" style="rounded=0;whiteSpace=wrap;html=1;fillColor=#ffcc99;strokeColor=none;fontSize=14;" vertex="1" parent="1">
          <mxGeometry x="585" y="520" width="350" height="40" as="geometry" />
        </mxCell>
        <mxCell id="6jbebENHfQlvfjUyyGji-42" value="已被读取的数据" style="rounded=0;whiteSpace=wrap;html=1;fillColor=#cce5ff;strokeColor=none;fontSize=14;" vertex="1" parent="1">
          <mxGeometry x="345" y="520" width="240" height="40" as="geometry" />
        </mxCell>
        <mxCell id="6jbebENHfQlvfjUyyGji-43" value="&lt;span style=&quot;font-size: 12px&quot;&gt;已收到&lt;/span&gt;&lt;span style=&quot;font-size: 12px&quot;&gt;但未读取的数据&lt;/span&gt;" style="rounded=0;whiteSpace=wrap;html=1;fillColor=#cdeb8b;strokeColor=#36393d;opacity=50;fontSize=14;" vertex="1" parent="1">
          <mxGeometry x="935" y="520" width="100" height="40" as="geometry" />
        </mxCell>
        <mxCell id="6jbebENHfQlvfjUyyGji-44" value="&lt;span style=&quot;font-size: 11px&quot;&gt;已收到&lt;/span&gt;&lt;span style=&quot;font-size: 11px&quot;&gt;但未读取的数据&lt;/span&gt;" style="rounded=0;whiteSpace=wrap;html=1;fillColor=#cce5ff;strokeColor=#36393d;opacity=40;fontSize=11;" vertex="1" parent="1">
          <mxGeometry x="1035" y="520" width="80" height="40" as="geometry" />
        </mxCell>
        <mxCell id="6jbebENHfQlvfjUyyGji-45" value="&lt;span style=&quot;font-size: 11px&quot;&gt;已收到&lt;/span&gt;&lt;span style=&quot;font-size: 11px&quot;&gt;但未读取的数据&lt;/span&gt;" style="rounded=0;whiteSpace=wrap;html=1;fillColor=#ffcc99;strokeColor=#36393d;opacity=40;fontSize=11;" vertex="1" parent="1">
          <mxGeometry x="1115" y="520" width="80" height="40" as="geometry" />
        </mxCell>
        <mxCell id="6jbebENHfQlvfjUyyGji-47" value="" style="endArrow=none;dashed=1;html=1;dashPattern=1 3;strokeWidth=2;rounded=0;fontSize=16;exitX=1;exitY=0;exitDx=0;exitDy=0;" edge="1" parent="1" source="6jbebENHfQlvfjUyyGji-41">
          <mxGeometry width="50" height="50" relative="1" as="geometry">
            <mxPoint x="960" y="460" as="sourcePoint" />
            <mxPoint x="935" y="470" as="targetPoint" />
          </mxGeometry>
        </mxCell>
        <mxCell id="6jbebENHfQlvfjUyyGji-48" value="" style="endArrow=none;dashed=1;html=1;dashPattern=1 3;strokeWidth=2;rounded=0;fontSize=16;exitX=1;exitY=0;exitDx=0;exitDy=0;" edge="1" parent="1">
          <mxGeometry width="50" height="50" relative="1" as="geometry">
            <mxPoint x="1195" y="515" as="sourcePoint" />
            <mxPoint x="1195" y="465" as="targetPoint" />
          </mxGeometry>
        </mxCell>
        <mxCell id="6jbebENHfQlvfjUyyGji-49" value="&lt;span style=&quot;font-size: 12px&quot;&gt;最大偏移字节数的位置&lt;/span&gt;" style="text;html=1;align=center;verticalAlign=middle;resizable=0;points=[];autosize=1;strokeColor=none;fillColor=none;fontSize=16;" vertex="1" parent="1">
          <mxGeometry x="1200" y="435" width="140" height="30" as="geometry" />
        </mxCell>
        <mxCell id="6jbebENHfQlvfjUyyGji-50" value="" style="endArrow=classic;html=1;rounded=0;fontSize=16;exitX=1;exitY=0;exitDx=0;exitDy=0;" edge="1" parent="1" source="6jbebENHfQlvfjUyyGji-45">
          <mxGeometry width="50" height="50" relative="1" as="geometry">
            <mxPoint x="900" y="390" as="sourcePoint" />
            <mxPoint x="1230" y="470" as="targetPoint" />
          </mxGeometry>
        </mxCell>
      </root>
    </mxGraphModel>
  </diagram>
</mxfile>
